HIERARCHY
ROOT root
{
	OFFSET	0	13.1	24.9
	CHANNELS 6  Xposition Yposition Zposition Xrotation Yrotation Zrotation
	JOINT spine_1
	{
		OFFSET	0	9.99999	0
		CHANNELS 3  Xrotation Yrotation Zrotation
		JOINT spine_2
		{
			OFFSET	0	112	-10
			CHANNELS 3  Xrotation Yrotation Zrotation
			JOINT spine_3
			{
				OFFSET	0	206.5	19.3
				CHANNELS 3  Xrotation Yrotation Zrotation
				JOINT spine_4
				{
					OFFSET	0	110.4	14.6
					CHANNELS 3  Xrotation Yrotation Zrotation
					JOINT neck_1
					{
						OFFSET	0	71.8	-50.3
						CHANNELS 3  Xrotation Yrotation Zrotation
						JOINT neck_2
						{
							OFFSET	0	86.2	-25.8
							CHANNELS 3  Xrotation Yrotation Zrotation
							JOINT head_ee
							{
								OFFSET	0	179.8	-8.7
								CHANNELS 3  Xrotation Yrotation Zrotation
								End Site
								{
									OFFSET	1	0	0
								}
							}
						}
					}
					JOINT left_clavicle
					{
						OFFSET	-43.2	22.4	-70.8
						CHANNELS 3  Xrotation Yrotation Zrotation
						JOINT left_shoulder
						{
							OFFSET	-93.9	-5.79999	48.7
							CHANNELS 3  Xrotation Yrotation Zrotation
							JOINT left_elbow
							{
								OFFSET	-291.4	-30.8	15.2
								CHANNELS 3  Xrotation Yrotation Zrotation
								JOINT left_lowarm_twist
								{
									OFFSET	-110.7	-3.89999	13.6
									CHANNELS 3  Xrotation Yrotation Zrotation
									JOINT left_hand
									{
										OFFSET	-110.7	-3.89999	13.6
										CHANNELS 3  Xrotation Yrotation Zrotation
										JOINT left_ee
										{
											OFFSET	-80.8	-5.10001	12.1
											CHANNELS 3  Xrotation Yrotation Zrotation
											End Site
											{
												OFFSET	1	0	0
											}
										}
									}
								}
							}
						}
					}
					JOINT right_clavicle
					{
						OFFSET	43.2	22.4	-70.8
						CHANNELS 3  Xrotation Yrotation Zrotation
						JOINT right_shoulder
						{
							OFFSET	93.9	-5.79999	48.7
							CHANNELS 3  Xrotation Yrotation Zrotation
							JOINT right_elbow
							{
								OFFSET	291.4	-30.8	15.2
								CHANNELS 3  Xrotation Yrotation Zrotation
								JOINT right_lowarm_twist
								{
									OFFSET	110.7	-3.89999	13.6
									CHANNELS 3  Xrotation Yrotation Zrotation
									JOINT right_hand
									{
										OFFSET	110.7	-3.89999	13.6
										CHANNELS 3  Xrotation Yrotation Zrotation
										JOINT right_ee
										{
											OFFSET	80.8	-5.10001	12.1
											CHANNELS 3  Xrotation Yrotation Zrotation
											End Site
											{
												OFFSET	1	0	0
											}
										}
									}
								}
							}
						}
					}
				}
			}
		}
	}
	JOINT left_hip
	{
		OFFSET	-82.8	-127.5	0.300001
		CHANNELS 3  Xrotation Yrotation Zrotation
		JOINT left_knee
		{
			OFFSET	-28.2	-396.7	2.2
			CHANNELS 3  Xrotation Yrotation Zrotation
			JOINT left_ankle
			{
				OFFSET	-11.7	-411.3	35.4
				CHANNELS 3  Xrotation Yrotation Zrotation
				JOINT left_toes
				{
					OFFSET	0	-60	-88.6
					CHANNELS 3  Xrotation Yrotation Zrotation
					JOINT left_foot_ee
					{
						OFFSET	-22.5	-16.5	-42.2
						CHANNELS 3  Xrotation Yrotation Zrotation
						End Site
						{
							OFFSET	1	0	0
						}
					}
				}
			}
		}
	}
	JOINT right_hip
	{
		OFFSET	82.8	-127.5	0.300001
		CHANNELS 3  Xrotation Yrotation Zrotation
		JOINT right_knee
		{
			OFFSET	28.2	-396.7	2.2
			CHANNELS 3  Xrotation Yrotation Zrotation
			JOINT right_ankle
			{
				OFFSET	11.7	-411.3	35.4
				CHANNELS 3  Xrotation Yrotation Zrotation
				JOINT right_toes
				{
					OFFSET	0	-60	-88.6
					CHANNELS 3  Xrotation Yrotation Zrotation
					JOINT right_foot_ee
					{
						OFFSET	22.5	-16.5	-42.2
						CHANNELS 3  Xrotation Yrotation Zrotation
						End Site
						{
							OFFSET	1	0	0
						}
					}
				}
			}
		}
	}
}
MOTION
Frames: 11
Frame Time: 0.02
1372.05 701.618 -1475.22 -6.59857880573 43.3324228174 1.66628998462 -1.24082 -0.404294 -0.500959 -1.24076 -0.371597 -0.525669 -1.23716 -0.239988 -0.597341 -1.23751 -0.331314 -0.551945 9.78381 -4.30969 4.97103 10.1615 -11.6184 6.04964 -0.0 0.0 -0.0 7.04609 -9.95879 13.4867 12.9461 -32.1207 60.4403 0.843256 -22.6713 0.169048 54.0395 -1.27293 -6.53174 3.41487 -21.826 13.2906 -0.0 0.0 -0.0 -3.58345 -11.2748 4.76767 -68.3348 85.9486 -21.6245 0.633566 17.4246 -0.0970893 -86.8283 8.67964 -5.13598 -8.38966 -6.92267 66.6605 0.0 0.0 0.0 1.7642 -19.2956 13.5535 -27.3345 0.136895 4.15294 25.4439 8.32732 -3.3835 36.6464 -0.0 -0.0 -0.0 0.0 -0.0 16.017 68.129 5.54266 -2.29295 -0.0875955 -0.340966 42.0703 -27.7665 5.46518 29.3878 -0.0 -0.0 0.0 0.0 0.0 
1356.20580536 704.592 -1492.15155508 -5.63648878138 43.5814861541 0.413244121525 -1.32986 -0.312373 -0.221542 -1.32989 -0.297643 -0.24097 -1.3286 -0.233374 -0.303635 -1.32862 -0.278399 -0.262967 10.2465 -5.12031 3.29627 10.5525 -11.3952 4.03795 -0.0 0.0 -0.0 7.17503 -8.79085 13.8025 12.7184 -31.7702 60.4452 0.805421 -21.751 0.154745 53.8463 -1.25772 -6.51223 3.20646 -21.447 12.0881 -0.0 0.0 -0.0 -3.72198 -11.8585 4.88464 -51.5515 86.3936 -37.7118 0.613708 16.9101 -0.0912278 -86.1297 8.59284 -5.15542 -8.44498 -6.7215 67.9929 0.0 0.0 0.0 1.23267 -19.7875 12.2571 -29.8103 0.051287 4.52322 26.4364 6.71817 -3.49542 37.483 -0.0 -0.0 -0.0 0.0 -0.0 15.6502 68.4391 5.69828 -2.43774 -0.0926675 -0.362608 42.0238 -26.0104 5.39366 29.4231 -0.0 -0.0 0.0 0.0 0.0 
1356.43129983 704.592 -1492.35978605 -5.56696023796 42.8267170205 0.311685404256 -1.32986 -0.312373 -0.221542 -1.32989 -0.297643 -0.24097 -1.3286 -0.233374 -0.303635 -1.32862 -0.278399 -0.262967 10.2465 -5.12031 3.29627 10.5525 -11.3952 4.03795 -0.0 0.0 -0.0 7.17503 -8.79085 13.8025 12.7184 -31.7702 60.4452 0.805421 -21.751 0.154745 53.8463 -1.25772 -6.51223 3.20646 -21.447 12.0881 -0.0 0.0 -0.0 -3.72198 -11.8585 4.88464 -51.5515 86.3936 -37.7118 0.613708 16.9101 -0.0912278 -86.1297 8.59284 -5.15542 -8.44498 -6.7215 67.9929 0.0 0.0 0.0 1.23267 -19.7875 12.2571 -29.8103 0.051287 4.52322 26.4364 6.71817 -3.49542 37.483 -0.0 -0.0 -0.0 0.0 -0.0 15.6502 68.4391 5.69828 -2.43774 -0.0926675 -0.362608 42.0238 -26.0104 5.39366 29.4231 -0.0 -0.0 0.0 0.0 0.0 
1345.16649664 697.45 -1507.87290871 -5.95246369549 43.4945965771 0.496719639272 -1.22837 -0.191697 0.102092 -1.22838 -0.197805 0.0896864 -1.22872 -0.213177 0.041547 -1.22866 -0.20394 0.074693 10.8804 -6.30114 0.925606 11.1079 -11.0954 1.1618 -0.0 0.0 -0.0 7.37655 -7.3723 14.2685 12.5926 -31.2986 60.5804 0.786635 -21.2896 0.147854 53.5141 -1.23171 -6.47854 2.92534 -20.9705 10.4474 -0.0 0.0 -0.0 -3.97778 -12.5999 5.16183 -34.6899 85.992 -53.3015 0.560715 15.5234 -0.0764272 -84.7851 8.42505 -5.18981 -8.51734 -6.43689 69.9027 0.0 0.0 0.0 1.90322 -19.6907 12.4393 -32.0308 -0.0390605 4.85198 27.8831 4.30376 -3.65994 38.6855 -0.0 -0.0 -0.0 0.0 -0.0 15.33 68.8246 5.45358 -2.63549 -0.099506 -0.392186 41.9466 -23.329 5.29663 29.4719 -0.0 -0.0 0.0 0.0 0.0 
1335.57586131 707.362 -1544.9217965 -5.52115098018 48.6198004943 0.313147353299 -1.84551 -0.0278482 0.33133 -1.84545 -0.048875 0.328887 -1.84569 -0.126874 0.307341 -1.84581 -0.0767428 0.323521 8.74676 -7.97539 -3.716 8.8699 -9.85853 -4.57251 -0.0 0.0 -0.0 7.62353 -2.43264 14.8452 11.3915 -29.6136 61.1032 0.723959 -19.7293 0.125892 52.7296 -1.17108 -6.3984 2.2009 -19.6854 6.2406 -0.0 0.0 -0.0 -4.39397 -15.3752 5.23139 -3.30604 85.1369 -83.4969 0.486986 13.563 -0.0579106 -82.3497 8.11909 -5.24194 -8.64175 -6.54517 72.4232 0.0 0.0 0.0 6.84363 -19.1035 13.4353 -36.7652 -0.273901 5.5401 28.3631 0.868659 -3.72728 40.491 -0.0 -0.0 -0.0 0.0 -0.0 15.0102 70.0579 3.62244 -1.57042 -0.0614692 -0.233158 42.1113 -18.1219 5.1758 28.3576 -0.0 -0.0 0.0 0.0 0.0 
1337.38118756 707.362 -1545.83711317 -5.36643229804 47.1522077217 0.104595986943 -1.84551 -0.0278482 0.33133 -1.84545 -0.048875 0.328887 -1.84569 -0.126874 0.307341 -1.84581 -0.0767428 0.323521 8.74676 -7.97539 -3.716 8.8699 -9.85853 -4.57251 -0.0 0.0 -0.0 7.62353 -2.43264 14.8452 11.3915 -29.6136 61.1032 0.723959 -19.7293 0.125892 52.7296 -1.17108 -6.3984 2.2009 -19.6854 6.2406 -0.0 0.0 -0.0 -4.39397 -15.3752 5.23139 -3.30604 85.1369 -83.4969 0.486986 13.563 -0.0579106 -82.3497 8.11909 -5.24194 -8.64175 -6.54517 72.4232 0.0 0.0 0.0 6.84363 -19.1035 13.4353 -36.7652 -0.273901 5.5401 28.3631 0.868659 -3.72728 40.491 -0.0 -0.0 -0.0 0.0 -0.0 15.0102 70.0579 3.62244 -1.57042 -0.0614692 -0.233158 42.1113 -18.1219 5.1758 28.3576 -0.0 -0.0 0.0 0.0 0.0 
1287.23543748 710.83 -1600.7862592 -7.32001900832 48.5222703537 1.57516646848 -1.20366 0.302278 0.84925 -1.2033 0.247627 0.866762 -1.19912 0.0411013 0.9005 -1.20021 0.182797 0.882711 13.6065 -10.2414 -5.66424 13.7595 -10.852 -7.05672 -0.0 0.0 -0.0 7.91679 5.33423 15.2707 5.11776 -25.1183 60.5596 0.622101 -17.1279 0.0936843 50.4852 -1.00376 -6.1647 1.39131 -17.1487 2.00642 -0.0 0.0 -0.0 -5.08302 -21.1502 4.88057 -0.0666214 86.095 -86.6498 0.365078 10.2513 -0.0327472 -80.8371 7.92795 -5.26769 -8.88957 -9.51274 71.814 0.0 0.0 0.0 10.9375 -20.0448 12.3174 -45.8668 -0.881544 6.79923 19.8836 1.23743 -2.73064 37.576 -0.0 -0.0 -0.0 0.0 -0.0 10.7668 68.9035 3.21354 -0.501109 -0.0203092 -0.0742187 41.1632 -11.5535 4.99114 22.9187 -0.0 -0.0 0.0 0.0 0.0 
1292.30907357 710.83 -1604.06789527 -7.01016844185 46.2551696092 1.15423641146 -1.20366 0.302278 0.84925 -1.2033 0.247627 0.866762 -1.19912 0.0411013 0.9005 -1.20021 0.182797 0.882711 13.6065 -10.2414 -5.66424 13.7595 -10.852 -7.05672 -0.0 0.0 -0.0 7.91679 5.33423 15.2707 5.11776 -25.1183 60.5596 0.622101 -17.1279 0.0936843 50.4852 -1.00376 -6.1647 1.39131 -17.1487 2.00642 -0.0 0.0 -0.0 -5.08302 -21.1502 4.88057 -0.0666214 86.095 -86.6498 0.365078 10.2513 -0.0327472 -80.8371 7.92795 -5.26769 -8.88957 -9.51274 71.814 0.0 0.0 0.0 10.9375 -20.0448 12.3174 -45.8668 -0.881544 6.79923 19.8836 1.23743 -2.73064 37.576 -0.0 -0.0 -0.0 0.0 -0.0 10.7668 68.9035 3.21354 -0.501109 -0.0203092 -0.0742187 41.1632 -11.5535 4.99114 22.9187 -0.0 -0.0 0.0 0.0 0.0 
1290.13436955 712.767 -1618.56972057 -7.9829369384 43.2128108129 1.86181108006 -0.771969 0.293144 0.70976 -0.771723 0.247387 0.726974 -0.768312 0.078845 0.763853 -0.769071 0.198489 0.741817 14.0102 -11.3195 -6.92612 14.1755 -11.2668 -8.67704 -0.0 0.0 -0.0 7.86525 7.15227 15.0925 2.67567 -22.9072 59.2386 0.62684 -17.2506 0.0950849 49.1843 -0.911033 -6.02632 1.39656 -16.4133 2.36928 -0.0 0.0 -0.0 -5.26777 -21.7912 4.98126 1.46408 86.4982 -88.205 0.315046 8.87049 -0.0244365 -81.6585 8.03185 -5.25434 -9.07243 -11.3607 71.7717 0.0 0.0 0.0 13.0796 -18.099 12.6842 -50.1538 -1.23559 7.356 15.7451 1.47749 -2.20196 36.5761 -0.0 -0.0 -0.0 0.0 -0.0 10.4421 68.1927 2.09578 -0.732908 -0.0294837 -0.108608 39.256 -10.7755 4.8166 22.7377 -0.0 -0.0 0.0 0.0 0.0 
1258.62261767 713.274 -1649.7436404 -5.16231430463 44.9539874472 0.0548710051792 -1.10413 0.282263 1.05905 -1.10353 0.214304 1.07486 -1.09892 -0.0373988 1.09538 -1.10057 0.136055 1.08754 13.6487 -11.3727 -6.94742 13.8207 -11.4131 -8.6809 -0.0 0.0 -0.0 7.75397 12.5768 14.5677 -2.12162 -21.1448 60.053 0.666093 -18.261 0.107056 44.4873 -0.603003 -5.51022 1.79703 -14.6714 5.83728 -0.0 0.0 -0.0 -6.05079 -22.9404 5.78437 -36.3126 87.3666 -48.9554 0.367177 10.309 -0.0331217 -83.9115 8.31559 -5.21002 -9.59865 -16.0575 71.8562 0.0 0.0 0.0 16.1707 -14.4723 12.0357 -52.5173 -1.4484 7.65137 6.23167 1.75211 -0.902243 31.1872 -0.0 -0.0 -0.0 0.0 -0.0 6.94018 65.7943 1.54493 -0.162337 -0.00665047 -0.0240245 31.0302 -11.8158 4.01758 23.0954 -0.0 -0.0 0.0 0.0 0.0 
1212.21422907 724.908 -1661.52211452 -5.02934026144 54.3774476585 0.0249777112373 -1.3796 -0.145262 0.834859 -1.37924 -0.19809 0.823925 -1.38192 -0.385179 0.754808 -1.38262 -0.261141 0.806163 11.2716 -9.86715 -5.7064 11.427 -10.6807 -7.03305 -0.0 0.0 -0.0 7.22199 20.8692 13.0175 -7.54603 -19.0199 59.7215 0.745675 -20.2735 0.13332 34.8773 -0.109964 -4.38595 2.2742 -10.6937 10.8609 -0.0 0.0 -0.0 -4.07096 -22.809 3.02323 -99.4913 86.6132 18.4973 0.405011 11.3449 -0.0402289 -85.5118 8.51584 -5.17172 -9.63147 -18.8889 65.3757 0.0 0.0 0.0 13.847 -14.0806 10.5957 -45.9934 -0.891395 6.81604 -2.96784 2.49393 0.439625 24.8245 -0.0 -0.0 -0.0 0.0 -0.0 2.74791 60.8644 2.67941 2.89683 0.130085 0.425413 22.5558 -16.1671 3.08262 24.3959 -0.0 -0.0 0.0 0.0 0.0 
